# xmcd
#
# Track frame offsets: 
#        150
#        16956
#        29136
#        48390
#        66606
#        89386
#        103887
#        123856
#        145552
#        186442
#        198857
#        209755
#        224873
#        237059
#        268240
#        285984
#
# Disc length: 4182 seconds
#
# Revision: 1
# Processed by: cddbd v1.5.2PL0 Copyright (c) Steve Scherf et al.
# Submitted via: ExactAudioCopyFreeDBPlugin 1.0
#
DISCID=02105410
DTITLE=Various Artist - Soul and Blues Forever CD2
DYEAR=2006
DGENRE=Blues
TTITLE0=Albert King - I'll Play The Blues For You
TTITLE1=Jimmy Hughes - Let's Em Down Baby
TTITLE2=Little Sonny - The Creeper Returns
TTITLE3=Little Milton - Packed Up And Tok My Head
TTITLE4=Merl Saunders and Friends - After Midnight
TTITLE5=Eddie Floyd - Oh,How It Rained
TTITLE6=Ruth Brown - A World I Never Made
TTITLE7=Jonny Guitar Watson - If Had The Power
TTITLE8=Albert King and Stevie Ray Vauhan - Call It Stormy Monday
TTITLE9=Mildred Anderson - No More Life
TTITLE10=Albert King - Wrapped Up In Love Again
TTITLE11=Joe Hicks - Ruby Dean
TTITLE12=Jimmy Witherspoon - Everytime I Think About you
TTITLE13=Michael Bloomfield - Your Friends
TTITLE14=Sonny Terry and Brownie McGhee - Just A Closer Walk With Thee
TTITLE15=Ella Fitzgerald - Fine And Mellow
EXTD=
EXTT0=
EXTT1=
EXTT2=
EXTT3=
EXTT4=
EXTT5=
EXTT6=
EXTT7=
EXTT8=
EXTT9=
EXTT10=
EXTT11=
EXTT12=
EXTT13=
EXTT14=
EXTT15=
PLAYORDER=
